<?xml version="1.0" encoding="UTF-8"?><svg xmlns="http://www.w3.org/2000/svg" xmlns:xlink="http://www.w3.org/1999/xlink" viewBox="0 0 96 96"><defs><style>.f{mask:url(#d);}.g{fill:none;stroke:#000;stroke-linecap:round;stroke-miterlimit:8.89;stroke-width:2.22px;}.h{fill:#fa9f43;}.i{fill:#fff;}.j{fill:#b3dbc8;}</style><mask id="d" width="96" height="96" maskUnits="userSpaceOnUse"><g id="e"><path class="i" d="M42.12,12.62h0c22.09,0,40,17.91,40,40h0c0,22.09-17.91,40-40,40h0c-22.09,0-40-17.91-40-40h0C2.12,30.53,20.03,12.62,42.12,12.62Z"/></g></mask></defs><g id="a"/><g id="b"><g id="c"><g class="f"><g><rect class="j" x="2.12" y="12.62" width="80" height="80"/><path class="h" d="M16.51,84.23h0C-3.5,66.83-5.62,36.52,11.77,16.51h0C29.17-3.5,59.48-5.62,79.49,11.77h0c20.01,17.39,22.13,47.71,4.74,67.72h0c-17.39,20.01-47.71,22.13-67.72,4.74Z"/><g transform="translate(-5 -2) rotate(-1 18 18)"><path class="g" d="M24.46,54.96c4.48,2.14,8.93,2.07,13.33-.23"/><path d="M21.41,39.45h0c.92-.02,1.68,.97,1.71,2.19h0c.02,1.23-.71,2.23-1.63,2.25h0c-.92,.02-1.68-.97-1.71-2.19h0c-.02-1.23,.71-2.23,1.63-2.25Z"/><path d="M39.19,39.14h0c.92-.02,1.68,.97,1.71,2.19h0c.02,1.23-.71,2.23-1.63,2.25h0c-.92,.02-1.68-.97-1.71-2.19h0c-.02-1.23,.71-2.23,1.63-2.25Z"/></g></g></g></g></g></svg>