<?xml version="1.0" encoding="UTF-8"?><svg xmlns="http://www.w3.org/2000/svg" xmlns:xlink="http://www.w3.org/1999/xlink" viewBox="0 0 121.63 121.63"><defs><style>.f{mask:url(#d);}.g{fill:none;stroke:#fff;stroke-linecap:round;stroke-miterlimit:8.89;stroke-width:2.22px;}.h{fill:#fa9f43;}.i{fill:#fff;}.j{fill:#262324;}</style><mask id="d" width="121.63" height="121.63" maskUnits="userSpaceOnUse"><g id="e"><path class="i" d="M46.83,7.39h0c22.09,0,40,17.91,40,40h0c0,22.09-17.91,40-40,40h0c-22.09,0-40-17.91-40-40h0C6.83,25.3,24.74,7.39,46.83,7.39Z"/></g></mask></defs><g id="a"/><g id="b"><g id="c"><g class="f"><g><rect class="h" x="6.83" y="7.39" width="80" height="80"/><rect class="j" x="12.82" y="12.82" width="96" height="96" rx="16" ry="16" transform="translate(-24.35 48.85) rotate(-37)"/><g transform="translate(3.5 -4) rotate(3 18 18)"><path class="g" d="M47.61,44.81c4.32,2.45,8.76,2.68,13.32,.7"/><path class="i" d="M41.21,28.9h0c.92,.05,1.61,1.08,1.55,2.31h0c-.06,1.23-.86,2.18-1.78,2.13h0c-.92-.05-1.61-1.08-1.55-2.31h0c.06-1.23,.86-2.18,1.78-2.13Z"/><path class="i" d="M67.84,30.29h0c.92,.05,1.61,1.08,1.55,2.31h0c-.06,1.23-.86,2.18-1.78,2.13h0c-.92-.05-1.61-1.08-1.55-2.31h0c.06-1.23,.86-2.18,1.78-2.13Z"/></g></g></g></g></g></svg>