<?xml version="1.0" encoding="UTF-8"?><svg xmlns="http://www.w3.org/2000/svg" xmlns:xlink="http://www.w3.org/1999/xlink" viewBox="0 0 111.04 111.04"><defs><style>.f{mask:url(#d);}.g{fill:none;stroke:#fff;stroke-linecap:round;stroke-miterlimit:8.89;stroke-width:2.22px;}.h{fill:#fff;}.i{fill:#f00065;}.j{fill:#262324;}</style><mask id="d" width="111.04" height="111.04" maskUnits="userSpaceOnUse"><g id="e"><path class="h" d="M45.39,12.17h0c22.09,0,40,17.91,40,40h0c0,22.09-17.91,40-40,40h0c-22.09,0-40-17.91-40-40h0C5.39,30.08,23.3,12.17,45.39,12.17Z"/></g></mask></defs><g id="a"/><g id="b"><g id="c"><g class="f"><g><rect class="j" x="5.39" y="12.17" width="80" height="80"/><rect class="i" x="11.52" y="11.52" width="88" height="88" rx="14.67" ry="14.67" transform="translate(-21.8 41.89) rotate(-35)"/><g transform="translate(7 -6) rotate(-5 18 18)"><path class="g" d="M54.69,43.85c4.62,1.83,9.05,1.44,13.28-1.16"/><path class="h" d="M52.98,30.61h0c.92-.08,1.75,.85,1.85,2.07h0c.11,1.22-.55,2.28-1.47,2.36h0c-.92,.08-1.75-.85-1.85-2.07h0c-.11-1.22,.55-2.28,1.47-2.36Z"/><path class="h" d="M66.26,29.45h0c.92-.08,1.75,.85,1.85,2.07h0c.11,1.22-.55,2.28-1.47,2.36h0c-.92,.08-1.75-.85-1.85-2.07h0c-.11-1.22,.55-2.28,1.47-2.36Z"/></g></g></g></g></g></svg>