<?xml version="1.0" encoding="UTF-8"?><svg xmlns="http://www.w3.org/2000/svg" xmlns:xlink="http://www.w3.org/1999/xlink" viewBox="0 0 96 96"><defs><style>.f{mask:url(#d);}.g{fill:#fff;}.h{fill:#ffad08;}.i{fill:#73b06f;}</style><mask id="d" width="96" height="96" maskUnits="userSpaceOnUse"><g id="e"><path class="g" d="M54.27,3.75h0c22.09,0,40,17.91,40,40h0c0,22.09-17.91,40-40,40h0c-22.09,0-40-17.91-40-40h0C14.27,21.66,32.18,3.75,54.27,3.75Z"/></g></mask></defs><g id="a"/><g id="b"><g id="c"><g class="f"><g><rect class="h" x="14.27" y="3.75" width="80" height="80"/><path class="i" d="M12.9,80.74h0C-5.18,61.35-4.12,30.97,15.26,12.9h0C34.65-5.18,65.03-4.12,83.11,15.26h0c18.08,19.39,17.02,49.76-2.37,67.84h0c-19.39,18.08-49.76,17.02-67.84-2.37Z"/><g transform="translate(-3 3.5) rotate(7 18 18)"><path d="M35.76,56.79c-.56,4.57,3.92,8.88,10.01,9.63,6.09,.75,11.48-2.35,12.04-6.92"/><path d="M37.11,41.28h0c.91,.11,1.53,1.19,1.38,2.41h0c-.15,1.22-1.01,2.11-1.93,2h0c-.91-.11-1.53-1.19-1.38-2.41h0c.15-1.22,1.01-2.11,1.93-2Z"/><path d="M59.17,43.99h0c.91,.11,1.53,1.19,1.38,2.41h0c-.15,1.22-1.01,2.11-1.93,2h0c-.91-.11-1.53-1.19-1.38-2.41h0c.15-1.22,1.01-2.11,1.93-2Z"/></g></g></g></g></g></svg>