<?xml version="1.0" encoding="UTF-8"?><svg xmlns="http://www.w3.org/2000/svg" xmlns:xlink="http://www.w3.org/1999/xlink" viewBox="0 0 80.01 80.01"><defs><style>.f{mask:url(#d);}.g{fill:none;stroke:#000;stroke-linecap:round;stroke-miterlimit:8.89;stroke-width:2.22px;}.h{fill:#f9fad2;}.i{fill:#fff;}.j{fill:#b3dbc8;}</style><mask id="d" width="80.01" height="80.01" maskUnits="userSpaceOnUse"><g id="e"><path class="i" d="M40,0h0C62.09,0,80,17.91,80,40h0c0,22.09-17.91,40-40,40h0C17.91,80,0,62.09,0,40H0C0,17.91,17.91,0,40,0Z"/></g></mask></defs><g id="a"/><g id="b"><g id="c"><g class="f"><g><rect class="h" x="0" y="0" width="80" height="80"/><path class="j" d="M16.49,7.64h0C34.36-5.34,59.38-1.38,72.36,16.49h0c12.98,17.87,9.02,42.89-8.85,55.87h0c-17.87,12.98-42.89,9.02-55.87-8.85h0C-5.34,45.64-1.38,20.63,16.49,7.64Z"/><g transform="translate(-4 -4) rotate(-4 18 18)"><path class="g" d="M24.62,33.8c4.59,1.91,9.02,1.6,13.3-.93"/><path d="M14.42,23.37h0c.92-.06,1.73,.88,1.82,2.1h0c.09,1.22-.59,2.27-1.51,2.33h0c-.92,.06-1.73-.88-1.82-2.1h0c-.09-1.22,.59-2.27,1.51-2.33Z"/><path d="M45.46,21.2h0c.92-.06,1.73,.88,1.82,2.1h0c.09,1.22-.59,2.27-1.51,2.33h0c-.92,.06-1.73-.88-1.82-2.1h0c-.09-1.22,.59-2.27,1.51-2.33Z"/></g></g></g></g></g></svg>