<?xml version="1.0" encoding="UTF-8"?><svg xmlns="http://www.w3.org/2000/svg" xmlns:xlink="http://www.w3.org/1999/xlink" viewBox="0 0 86.67 95.56"><defs><style>.f{mask:url(#d);}.g{fill:#f9fad2;}.h{fill:#fff;}.i{fill:#f00065;}</style><mask id="d" width="86.67" height="95.56" maskUnits="userSpaceOnUse"><g id="e"><path class="h" d="M46.67,0h0c22.09,0,40,17.91,40,40h0c0,22.09-17.91,40-40,40h0c-22.09,0-40-17.91-40-40h0C6.67,17.91,24.58,0,46.67,0Z"/></g></mask></defs><g id="a"/><g id="b"><g id="c"><g class="f"><g><rect class="i" x="6.67" width="80" height="80"/><path class="g" d="M79.95,53.46h0c1.16,22.06-15.79,40.88-37.85,42.04h0C20.03,96.66,1.21,79.71,.06,57.65H.06C-1.1,35.59,15.85,16.77,37.91,15.61h0c22.06-1.16,40.88,15.79,42.04,37.85Z"/><g transform="translate(-7 3.5) rotate(-7 18 18)"><path d="M20.35,51.34c.56,4.57,5.95,7.66,12.04,6.92s10.57-5.06,10.01-9.63"/><path d="M18.45,40.38h0c.91-.11,1.78,.78,1.93,2h0c.15,1.22-.47,2.3-1.38,2.41h0c-.91,.11-1.78-.78-1.93-2h0c-.15-1.22,.47-2.3,1.38-2.41Z"/><path d="M40.51,37.67h0c.91-.11,1.78,.78,1.93,2h0c.15,1.22-.47,2.3-1.38,2.41h0c-.91,.11-1.78-.78-1.93-2h0c-.15-1.22,.47-2.3,1.38-2.41Z"/></g></g></g></g></g></svg>