<?xml version="1.0" encoding="UTF-8"?><svg xmlns="http://www.w3.org/2000/svg" xmlns:xlink="http://www.w3.org/1999/xlink" viewBox="0 0 112.09 110.78"><defs><style>.f{mask:url(#d);}.g{fill:#f9fad2;}.h{fill:#fff;}.i{fill:#b3dbc8;}</style><mask id="d" width="112.09" height="110.78" maskUnits="userSpaceOnUse"><g id="e"><path class="h" d="M40,3.16h0c22.09,0,40,17.91,40,40h0c0,22.09-17.91,40-40,40h0C17.91,83.16,0,65.26,0,43.16H0C0,21.07,17.91,3.16,40,3.16Z"/></g></mask></defs><g id="a"/><g id="b"><g id="c"><g class="f"><g><rect class="g" y="3.16" width="80" height="80"/><rect class="i" x="12.7" y="11.39" width="88" height="88" rx="14.67" ry="14.67" transform="translate(-20.93 71.42) rotate(-56)"/><g transform="translate(4 4) rotate(-4 18 18)"><path d="M38.11,57.26c.32,4.59,5.54,7.97,11.67,7.54s10.82-4.5,10.5-9.09"/><path d="M32.2,44.31h0c.92-.06,1.73,.88,1.82,2.1h0c.09,1.22-.59,2.27-1.51,2.33h0c-.92,.06-1.73-.88-1.82-2.1h0c-.09-1.22,.59-2.27,1.51-2.33Z"/><path d="M63.23,42.14h0c.92-.06,1.73,.88,1.82,2.1h0c.09,1.22-.59,2.27-1.51,2.33h0c-.92,.06-1.73-.88-1.82-2.1h0c-.09-1.22,.59-2.27,1.51-2.33Z"/></g></g></g></g></g></svg>