<?xml version="1.0" encoding="UTF-8"?><svg xmlns="http://www.w3.org/2000/svg" xmlns:xlink="http://www.w3.org/1999/xlink" viewBox="0 0 110.84 101.95"><defs><style>.f{mask:url(#d);}.g{fill:none;stroke:#000;stroke-linecap:round;stroke-miterlimit:8.89;stroke-width:2.22px;}.h{fill:#f9fad2;}.i{fill:#fff;}.j{fill:#b3dbc8;}</style><mask id="d" width="110.84" height="101.95" maskUnits="userSpaceOnUse"><g id="e"><path class="i" d="M40,21.95h0c22.09,0,40,17.91,40,40h0c0,22.09-17.91,40-40,40h0C17.91,101.95,0,84.04,0,61.95H0C0,39.86,17.91,21.95,40,21.95Z"/></g></mask></defs><g id="a"/><g id="b"><g id="c"><g class="f"><g><rect class="h" y="21.95" width="80" height="80"/><rect class="j" x="20" y="10.84" width="80" height="80" rx="13.33" ry="13.33" transform="translate(-17.27 65.47) rotate(-51)"/><g transform="translate(4.5 -3) rotate(-9 18 18)"><path class="g" d="M43.76,58.52c4.74,1.5,9.13,.8,13.17-2.09"/><path d="M32.7,49.02h0c.91-.14,1.8,.72,1.99,1.93h0c.19,1.21-.39,2.31-1.3,2.46h0c-.91,.14-1.8-.72-1.99-1.93h0c-.19-1.21,.39-2.31,1.3-2.46Z"/><path d="M63.42,44.16h0c.91-.14,1.8,.72,1.99,1.93h0c.19,1.21-.39,2.31-1.3,2.46h0c-.91,.14-1.8-.72-1.99-1.93h0c-.19-1.21,.39-2.31,1.3-2.46Z"/></g></g></g></g></g></svg>